{"title":"The Theory of Everything 2014 DVDrip English Klam","uid":11689778,"size":1693002812,"categoryP":"video","categoryS":"movies","magnet":"?xt=urn:btih:09ffa6e117116b51eb93830a293173f9168f6eea&amp;dn=The+Theory+of+Everything+2014+DVDrip+English+Klam&amp;tr=udp%3A%2F%2Ftracker.openbittorrent.com%3A80&amp;tr=udp%3A%2F%2Fopen.demonii.com%3A1337&amp;tr=udp%3A%2F%2Ftracker.coppersurfer.tk%3A6969&amp;tr=udp%3A%2F%2Fexodus.desync.com%3A6969","seeders":4,"leechers":0,"uploader":"Klambake","files":6,"time":1423476564,"description":" &lt;a href=&quot;http://i.imgur.com/R0aHdhb.jpg&quot; rel=&quot;nofollow&quot; target=&quot;_NEW&quot;&gt;http://i.imgur.com/R0aHdhb.jpg&lt;/a&gt;\n\nWith: Eddie Redmayne, Felicity Jones and David Thewlis\n\nDe film vertelt het verhaal over de beroemde natuurkundige Stephen Hawking. Het verhaal centreert zich om Hawkings vroege jaren op de Universiteit van Cambridge waar hij verliefd wordt op de arts-studente Jane, waar hij later mee trouwt. Net na het huwelijk wordt bij Hawking ALS, een ongeneeslijke spierziekte, gediagnosticeerd.\n\nThe relationship between the famous physicist Stephen Hawking and his wife.\n &lt;a href=&quot;\nhttp://www.imdb.com/title/tt2980516&quot; rel=&quot;nofollow&quot; target=&quot;_NEW&quot;&gt;\nhttp://www.imdb.com/title/tt2980516&lt;/a&gt;\n\n--------------------- Dutch Friends 4ever ---------------------\n---------------------------------------------------------------\n- Bezoek ook eens mijn vrienden op: &lt;a href=&quot; http://www.Film-Test.nl&quot; rel=&quot;nofollow&quot; target=&quot;_NEW&quot;&gt; http://www.Film-Test.nl&lt;/a&gt; --\n----- voor mijn Nederlandse Sync. ondertitels ---- en meer ----\n------- http://www.Film-Test.nl ---- Over Films en meer -------\n---------------------------------------------------------------\n &lt;a href=&quot;\nhttp://i.imgur.com/3PTgQvS.jpg&quot; rel=&quot;nofollow&quot; target=&quot;_NEW&quot;&gt;\nhttp://i.imgur.com/3PTgQvS.jpg&lt;/a&gt; &lt;a href=&quot;\nhttp://i.imgur.com/MF9ZftO.jpg&quot; rel=&quot;nofollow&quot; target=&quot;_NEW&quot;&gt;\nhttp://i.imgur.com/MF9ZftO.jpg&lt;/a&gt; &lt;a href=&quot;\nhttp://i.imgur.com/B6w9SFh.jpg&quot; rel=&quot;nofollow&quot; target=&quot;_NEW&quot;&gt;\nhttp://i.imgur.com/B6w9SFh.jpg&lt;/a&gt;\n\nGeneral:\n\nComplete name                            : The Theoryof Everything.avi\nFormat                                   : AVI\nFormat/Info                              : Audio Video Interleave\nFile size                                : 1.58 GiB\nDuration                                 : 2h 3mn\nOverall bit rate                         : 1 829 Kbps\n\nVideo:\n\nFormat                                   : MPEG-4 Visual\nFormat profile                           : Simple@L3\nFormat settings, BVOP                    : No\nFormat settings, QPel                    : No\nFormat settings, GMC                     : No warppoints\nFormat settings, Matrix                  : Default (H.263)\nCodec ID                                 : XVID\nCodec ID/Hint                            : XviD\nDuration                                 : 2h 3mn\nBit rate                                 : 1 370 Kbps\nWidth                                    : 720 pixels\nHeight                                   : 304 pixels\nDisplay aspect ratio                     : 2.35:1\nFrame rate                               : 23.976 fps\nColor space                              : YUV\nChroma subsampling                       : 4:2:0\nBit depth                                : 8 bits\nScan type                                : Progressive\nCompression mode                         : Lossy\nBits/(Pixel*Frame)                       : 0.261\nStream size                              : 1.18 GiB (75%)\nWriting library                          : XviD 1.1.2 (UTC 2006-11-01)\n\nAudio:\n\nFormat                                   : AC-3\nFormat/Info                              : Audio Coding 3\nMode extension                           : CM (complete main)\nFormat settings, Endianness              : Big\nCodec ID                                 : 2000\nDuration                                 : 2h 3mn\nSource duration                          : 2h 3mn\nBit rate mode                            : Constant\nBit rate                                 : 448 Kbps\nChannel(s)                               : 6 channels\nChannel positions                        : Front: L C R, Side: L R, LFE\nSampling rate                            : 48.0 KHz\nBit depth                                : 16 bits\nCompression mode                         : Lossy\nStream size                              : 395 MiB (24%)\nAlignment                                : Aligned on interleaves\nInterleave, duration                     : 32 ms (0.77 video frame)\nInterleave, preload duration             : 512 ms","torrent":{"xt":"urn:btih:09ffa6e117116b51eb93830a293173f9168f6eea","amp;dn":"The+Theory+of+Everything+2014+DVDrip+English+Klam","amp;tr":["udp%3A%2F%2Ftracker.openbittorrent.com%3A80","udp%3A%2F%2Fopen.demonii.com%3A1337","udp%3A%2F%2Ftracker.coppersurfer.tk%3A6969","udp%3A%2F%2Fexodus.desync.com%3A6969"],"infoHash":"09ffa6e117116b51eb93830a293173f9168f6eea","infoHashBuffer":{"type":"Buffer","data":[9,255,166,225,23,17,107,81,235,147,131,10,41,49,115,249,22,143,110,234]},"announce":[],"urlList":[]}}